<?xml version="1.0" encoding="UTF-8" standalone="no"?>
<!-- Created with Inkscape (http://www.inkscape.org/) -->

<svg
   width="164.07146mm"
   height="47.078758mm"
   viewBox="0 0 164.07146 47.078758"
   version="1.1"
   id="svg1"
   inkscape:version="1.4.2 (ebf0e940d0, 2025-05-08)"
   sodipodi:docname="Logo of Black Hat (conference).svg"
   xmlns:inkscape="http://www.inkscape.org/namespaces/inkscape"
   xmlns:sodipodi="http://sodipodi.sourceforge.net/DTD/sodipodi-0.dtd"
   xmlns="http://www.w3.org/2000/svg"
   xmlns:svg="http://www.w3.org/2000/svg">
  <sodipodi:namedview
     id="namedview1"
     pagecolor="#ffffff"
     bordercolor="#000000"
     borderopacity="0.25"
     inkscape:showpageshadow="2"
     inkscape:pageopacity="0.0"
     inkscape:pagecheckerboard="0"
     inkscape:deskcolor="#d1d1d1"
     inkscape:document-units="mm"
     inkscape:zoom="0.71268238"
     inkscape:cx="310.09606"
     inkscape:cy="255.37323"
     inkscape:window-width="1870"
     inkscape:window-height="1011"
     inkscape:window-x="0"
     inkscape:window-y="0"
     inkscape:window-maximized="1"
     inkscape:current-layer="layer1" />
  <defs
     id="defs1">
    <clipPath
       id="clip-0">
      <path
         clip-rule="nonzero"
         d="m 553,75 h 18 v 25.64063 h -18 z m 0,0"
         id="path109" />
    </clipPath>
    <clipPath
       id="clip-1">
      <path
         clip-rule="nonzero"
         d="M 379.10937,75 H 406 v 25.64063 h -26.89063 z m 0,0"
         id="path110" />
    </clipPath>
  </defs>
  <g
     inkscape:label="Layer 1"
     inkscape:groupmode="layer"
     id="layer1"
     transform="translate(-22.902077,-80.765833)">
    <path
       fill-rule="nonzero"
       fill="#000000"
       fill-opacity="1"
       d="m 133.00359,120.17717 c 0,-2.54489 1.39854,-3.63555 3.24581,-3.63555 1.65073,0 2.68572,0.83847 2.68572,2.77088 v 7.91633 h 6.99598 v -9.73738 c 0,-4.25458 -2.90845,-5.9872 -6.77,-5.9872 -3.35713,0 -5.4271,1.34286 -6.09854,2.32217 h -0.0589 v -7.27438 h -6.99598 v 20.67679 h 6.99598 z m 0,0"
       id="path822"
       style="stroke-width:0.83847" />
    <path
       fill-rule="nonzero"
       fill="#000000"
       fill-opacity="1"
       d="m 161.65895,120.93376 c 0,2.63004 -2.60384,3.21631 -4.95548,3.21631 -1.73264,0 -2.60056,-0.66815 -2.60056,-1.73261 0,-0.97931 0.61575,-1.39854 1.89965,-1.51318 2.49249,-0.22273 4.48056,-0.38976 5.65639,-0.64195 z m 6.9927,-3.46851 c 0,-4.56246 -2.82654,-6.15751 -9.96009,-6.15751 -3.69451,0 -6.23938,0.27839 -7.9458,1.06446 -1.7359,0.80899 -2.60384,2.09617 -3.02308,4.19562 h 6.99598 c 0.33408,-1.48369 1.92912,-1.73262 3.52419,-1.73262 1.98807,0 3.24578,0.47492 3.24578,1.48043 0,0.84174 -0.47492,1.17582 -1.87343,1.26098 l -5.90534,0.27839 c -5.17492,0.22273 -7.16301,2.01429 -7.16301,4.81465 0,3.91723 2.96739,5.17494 7.66741,5.17494 3.72071,0 6.10182,-0.67144 7.66742,-2.12566 0.0295,0.56007 0.11147,1.06446 0.24892,1.5099 h 7.16627 c -0.33408,-0.50112 -0.64522,-1.20202 -0.64522,-2.37785 z m 0,0"
       id="path823"
       style="stroke-width:0.83847" />
    <g
       clip-path="url(#clip-0)"
       id="g824"
       transform="matrix(0.83846943,0,0,0.83846943,-294.96954,43.460493)">
      <path
         fill-rule="nonzero"
         fill="#000000"
         fill-opacity="1"
         d="m 557.37891,94.367188 c 0,4.972656 1.9375,5.941402 7.01171,5.941402 2.60157,0 4.60157,-0.19921 6.07422,-0.40234 v -4.871094 c -0.80468,0.03516 -1.57031,0.06641 -2.23828,0.06641 -1.80078,0 -2.5039,-0.101562 -2.5039,-1.804687 v -6.4375 h 4.50781 v -5.207031 h -4.50781 v -5.875 h -8.34375 v 5.875 h -3.8711 v 5.207031 h 3.8711 z m 0,0"
         id="path824" />
    </g>
    <g
       clip-path="url(#clip-1)"
       id="g825"
       transform="matrix(0.83846943,0,0,0.83846943,-294.96954,43.460493)">
      <path
         fill-rule="nonzero"
         fill="#000000"
         fill-opacity="1"
         d="m 392.00781,94.933594 c -3.20312,0 -4.57031,-1.535156 -4.57031,-4.136719 0,-2.570313 1.36719,-4.136719 4.60547,-4.136719 3.0039,0 4.53906,1.800782 4.53906,4.136719 0,2.402344 -1.33203,4.136719 -4.57422,4.136719 m 2.73828,-13.882813 c -3.40234,0 -5.80859,0.835938 -7.24218,2.570313 h -0.0664 v -8.476563 h -8.34375 v 24.664063 h 8.07812 v -1.9375 h 0.0664 c 1.5,1.734375 3.80469,2.671876 7.50781,2.671876 5.40625,0 10.37891,-2.972658 10.37891,-9.746095 0,-6.773437 -4.97266,-9.746094 -10.37891,-9.746094"
         id="path825" />
    </g>
    <path
       fill-rule="nonzero"
       fill="#000000"
       fill-opacity="1"
       d="m 45.704525,127.14695 h 6.992705 v -20.68006 h -6.992705 z m 0,0"
       id="path826"
       style="stroke-width:0.83847" />
    <path
       fill-rule="nonzero"
       fill="#000000"
       fill-opacity="1"
       d="m 68.98188,120.8486 c 0,2.63004 -2.60057,3.21959 -4.95221,3.21959 -1.73262,0 -2.60384,-0.67143 -2.60384,-1.73589 0,-0.97931 0.61574,-1.39854 1.9062,-1.5099 2.4892,-0.22273 4.47402,-0.39303 5.64985,-0.64523 z m 0.47819,6.29835 h 7.15974 c -0.33408,-0.50439 -0.64195,-1.2053 -0.64195,-2.38113 v -7.38573 c 0,-4.55918 -2.82656,-6.15751 -9.9601,-6.15751 -3.69451,0 -6.24267,0.28167 -7.94909,1.06446 -1.73589,0.81227 -2.60056,2.09945 -3.0198,4.1989 h 6.9927 c 0.33736,-1.4837 1.93242,-1.73589 3.52747,-1.73589 1.98482,0 3.2458,0.47491 3.2458,1.48369 0,0.83847 -0.4782,1.17583 -1.87346,1.25771 l -5.90531,0.28167 c -5.17821,0.22273 -7.16629,2.01429 -7.16629,4.81138 0,3.91722 2.96739,5.1782 7.67068,5.1782 3.72071,0 6.09855,-0.67143 7.66741,-2.12893 0.0262,0.56007 0.11135,1.06447 0.2522,1.51318"
       id="path827"
       style="stroke-width:0.83847" />
    <path
       fill-rule="nonzero"
       fill="#000000"
       fill-opacity="1"
       d="m 76.76064,119.45006 c 0,6.35403 5.03737,8.31264 11.47328,8.31264 4.81466,0 10.52017,-0.72711 11.25055,-7.08114 h -7.33333 c -0.47491,1.98809 -1.92913,2.54816 -3.88775,2.54816 -2.77413,0 -4.16941,-1.51317 -4.16941,-3.86482 0,-2.04049 1.09065,-3.77638 4.2251,-3.77638 0.89414,0 1.87346,0.14084 2.5154,0.47491 0.78607,0.39303 1.23478,0.98258 1.31666,1.93241 h 7.33333 c -0.75659,-5.09305 -4.67381,-6.77326 -11.25055,-6.77326 -6.43591,0 -11.47328,1.96189 -11.47328,8.22748"
       id="path828"
       style="stroke-width:0.83847" />
    <path
       fill-rule="nonzero"
       fill="#000000"
       fill-opacity="1"
       d="m 121.55981,111.83833 h -9.28868 l -5.28956,4.95549 v -10.32693 h -6.99598 v 20.68006 h 6.99598 v -3.35715 l 2.1846,-1.79158 3.63555,5.14873 h 9.459 l -7.66742,-9.59982 z m 0,0"
       id="path829"
       style="stroke-width:0.83847" />
    <path
       fill-rule="nonzero"
       fill="#000000"
       fill-opacity="1"
       d="m 184.8315,108.491 h -0.52406 v -0.95965 h 0.72713 c 0.33407,0 0.57971,0.11135 0.57971,0.49129 0,0.42906 -0.32424,0.46836 -0.78278,0.46836 m 1.00551,-0.46836 c 0,-0.53715 -0.3177,-0.68453 -0.80244,-0.68453 h -0.94983 v 2.47283 h 0.2227 v -1.1267 h 0.64197 l 0.74347,1.1267 h 0.25876 l -0.74676,-1.1267 c 0.38975,-0.0622 0.63213,-0.23254 0.63213,-0.6616"
       id="path830"
       style="stroke-width:0.83847" />
    <path
       fill-rule="nonzero"
       fill="#000000"
       fill-opacity="1"
       d="m 184.88718,110.43979 c -1.02845,0 -1.86036,-0.83192 -1.86036,-1.86363 0,-1.02843 0.83191,-1.86363 1.86036,-1.86363 1.03171,0 1.86362,0.8352 1.86362,1.86363 0,1.03171 -0.83191,1.86363 -1.86362,1.86363 m 0,-3.94998 c -1.15289,0 -2.08634,0.93345 -2.08634,2.08635 0,1.1529 0.93345,2.08635 2.08634,2.08635 1.1529,0 2.08635,-0.93345 2.08635,-2.08635 0,-1.1529 -0.93345,-2.08635 -2.08635,-2.08635"
       id="path831"
       style="stroke-width:0.83847" />
    <path
       fill-rule="nonzero"
       fill="#000000"
       fill-opacity="1"
       d="m 70.34766,105.65789 c -0.16048,-1.18237 -1.10376,-1.97171 -1.10376,-1.97171 -1.02516,-0.63213 1.33958,-1.18565 1.33958,-1.18565 -1.02515,-1.50007 -1.18237,-3.868093 -1.18237,-3.868093 -10.18609,-3.314575 -0.47163,-4.89653 -0.47163,-4.89653 0.94654,-6.393331 2.12892,-5.839809 2.12892,-5.839809 0.71728,-0.108071 2.62022,-0.117911 4.48712,-0.09498 0.01,0 0.0164,0 0.0228,0 0.01,0 0.0197,0 0.0262,0 1.86692,-0.02282 3.76985,-0.01307 4.48713,0.09498 0,0 1.18237,-0.553522 2.12893,5.839809 0,0 9.71445,1.581955 -0.47164,4.89653 0,0 -0.15722,2.368023 -1.18238,3.868093 0,0 2.36802,0.55352 1.33959,1.18565 0,0 -0.94328,0.78934 -1.10377,1.97171 0,0 7.14991,1.23151 8.26677,3.31785 2.40408,-2.97394 3.84518,-6.75688 3.84518,-10.880447 0,-9.570343 -7.75911,-17.32946 -17.32618,-17.32946 -0.003,0 -0.007,0 -0.01,0 0,0 -0.003,0 -0.007,0 -9.56706,0 -17.32618,7.759117 -17.32618,17.32946 0,4.123567 1.44112,7.906507 3.84517,10.880447 1.11686,-2.08634 8.26678,-3.31785 8.26678,-3.31785"
       id="path832"
       style="stroke-width:0.83847" />
  </g>
</svg>
