<svg xmlns="http://www.w3.org/2000/svg" width="1520" height="130" fill="none">
  <g fill="#fff" clip-path="url(#a)">
    <path d="M129.31 107.023h34.157V130H34.7673C15.8587 130 0 112.465 0 91.907V38.093C0 17.5349 15.2488 0 34.7673 0H163.467v22.9767H40.2568c-8.5393 0-15.8587 7.8605-15.8587 17.5349v48.9768c0 9.6744 7.3194 17.5346 15.8587 17.5346H129.31ZM218.974 130c-18.908 0-34.767-17.535-34.767-38.093V38.093C184.207 17.5349 199.456 0 218.974 0h103.692c18.909 0 34.767 17.5349 34.767 38.093v53.814c0 21.163-15.248 38.093-34.767 38.093H218.974Zm113.451-40.5116V40.5116c0-9.6744-7.319-17.5349-15.858-17.5349h-92.713c-8.539 0-15.859 7.8605-15.859 17.5349v48.9768c0 9.6744 7.32 17.5346 15.859 17.5346h92.713c8.539 0 15.858-7.8602 15.858-17.5346ZM378.172 0h135.409c18.909 0 34.767 17.5349 34.767 38.093v53.814c0 21.163-15.248 38.093-34.767 38.093H378.172V0ZM523.95 89.4884V40.5116c0-9.6744-7.319-17.5349-15.858-17.5349H402.57v84.0463h105.522c8.539 0 15.858-7.8602 15.858-17.5346Zm44.527-51.3954C568.477 17.5349 584.335 0 603.244 0h127.48v22.9767H609.343c-8.539 0-15.858 7.8605-15.858 17.5349v13.3023h137.239v22.9768H593.485V90.093c0 9.6744 7.319 17.535 15.858 17.535h121.381v22.977h-127.48c-18.909 0-34.767-17.535-34.767-38.0934V38.093ZM922.247 130h-132.97V0h132.97c18.908 0 34.767 17.5349 34.767 38.093 0 20.5582-3.66 19.3489-9.759 26.6047v.6046c6.099 7.2558 9.759 16.3256 9.759 26.6047 0 21.163-15.249 38.093-34.767 38.093Zm9.759-88.8837v-5.4419c0-6.6511-4.88-12.093-10.979-12.093H813.675V53.814h107.352c6.099 0 10.979-5.4419 10.979-12.0931v-.6046ZM813.675 76.7907v30.2323h107.352c6.099 0 10.979-5.442 10.979-12.0928v-5.4418c0-6.6512-4.88-12.093-10.979-12.093H813.675v-.6047ZM1011.91 130c-5.49 0-10.98-1.209-15.248-4.233-1.22-.604-2.439-1.209-3.049-1.814-9.76-7.255-15.859-19.348-15.859-32.046V0h24.396v89.4884c0 9.6744 7.32 17.5346 15.86 17.5346H1140V130h-128.09Zm303.75-40.5116V0h24.4v91.907c0 21.163-15.25 38.093-34.77 38.093H1201.6c-18.91 0-34.76-17.535-34.76-38.093V0h24.39v89.4884c0 9.6744 7.32 17.5346 15.86 17.5346h92.72c8.53 0 15.85-7.8602 15.85-17.5346Zm42.09-51.3954c0-20.5581 15.86-38.093 34.77-38.093H1520v22.9767h-121.38c-8.54 0-15.86 7.8605-15.86 17.5349v13.3023H1520v22.9768h-137.24V90.093c0 9.6744 7.32 17.535 15.86 17.535H1520v22.977h-127.48c-18.91 0-34.77-17.535-34.77-38.0934V38.093Z"/>
  </g>
  <defs>
    <clipPath id="a">
      <path fill="#fff" d="M0 0h1520v130H0z"/>
    </clipPath>
  </defs>
</svg>
