<?xml version="1.0" encoding="UTF-8"?>
<svg width="178px" height="55px" viewBox="0 0 178 55" version="1.1" xmlns="http://www.w3.org/2000/svg" xmlns:xlink="http://www.w3.org/1999/xlink">
    <title>Group 2</title>
    <g id="Page-1" stroke="none" stroke-width="1" fill="none" fill-rule="evenodd">
        <g id="cycon_21_sponsors" transform="translate(-1386.000000, -31.000000)" fill="#FFFFFF">
            <g id="Group-2" transform="translate(1386.233300, 30.999900)">
                <path d="M79.2862,21.4503 C79.2862,19.9383 78.1522,18.8043 76.6402,18.8043 L73.6152,18.8043 C72.1402,18.8043 70.9692,19.9753 70.9692,21.4503 L70.9692,33.5123 C70.9692,34.9493 72.1782,36.1583 73.6152,36.1583 L76.6402,36.1583 C78.1142,36.1583 79.2862,34.9493 79.2862,33.5123 L79.2862,31.4323 L83.8242,31.4323 L83.8242,33.5123 C83.8242,37.4823 80.6102,40.7343 76.6402,40.7343 L73.6152,40.7343 C69.6822,40.7343 66.4312,37.4443 66.4312,33.5123 L66.4312,21.4503 C66.4312,17.4803 69.6822,14.2663 73.6152,14.2663 L76.6402,14.2663 C80.6472,14.2663 83.8242,17.4423 83.8242,21.4503 L83.8242,23.5303 L79.2862,23.5303 L79.2862,21.4503 Z" id="Fill-1237"></path>
                <polygon id="Fill-1239" points="107.2677 14.2662 107.2677 22.5092 100.8397 30.9412 100.8397 40.7342 96.3017 40.7342 96.3017 30.9412 89.8737 22.9632 89.8737 14.2662 94.4127 14.2662 94.4127 21.3372 98.5337 26.5172 102.7307 20.9592 102.7307 14.2662"></polygon>
                <path d="M126.1739,21.4503 C126.1739,19.9383 125.0389,18.8043 123.5279,18.8043 L120.5019,18.8043 C119.0279,18.8043 117.8559,19.9753 117.8559,21.4503 L117.8559,33.5123 C117.8559,34.9493 119.0659,36.1583 120.5019,36.1583 L123.5279,36.1583 C125.0019,36.1583 126.1739,34.9493 126.1739,33.5123 L126.1739,31.4323 L130.7109,31.4323 L130.7109,33.5123 C130.7109,37.4823 127.4969,40.7343 123.5279,40.7343 L120.5019,40.7343 C116.5699,40.7343 113.3189,37.4443 113.3189,33.5123 L113.3189,21.4503 C113.3189,17.4803 116.5699,14.2663 120.5019,14.2663 L123.5279,14.2663 C127.5349,14.2663 130.7109,17.4423 130.7109,21.4503 L130.7109,23.5303 L126.1739,23.5303 L126.1739,21.4503 Z" id="Fill-1241"></path>
                <path d="M149.6173,33.5123 L149.6173,21.4503 C149.6173,19.9383 148.4833,18.8043 146.9713,18.8043 L143.9453,18.8043 C142.4713,18.8043 141.2993,19.9753 141.2993,21.4503 L141.2993,33.5123 C141.2993,34.9493 142.5093,36.1583 143.9453,36.1583 L146.9713,36.1583 C148.4453,36.1583 149.6173,34.9493 149.6173,33.5123 L149.6173,33.5123 Z M143.9453,40.7343 C140.0133,40.7343 136.7623,37.4443 136.7623,33.5123 L136.7623,21.4503 C136.7623,17.4803 140.0133,14.2663 143.9453,14.2663 L146.9713,14.2663 C150.9783,14.2663 154.1543,17.4423 154.1543,21.4503 L154.1543,33.5123 C154.1543,37.4823 150.9403,40.7343 146.9713,40.7343 L143.9453,40.7343 Z" id="Fill-1243"></path>
                <polygon id="Fill-1245" points="177.5987 14.2662 177.5987 40.7342 171.4727 40.7342 164.7427 22.8872 164.7427 40.7342 160.2047 40.7342 160.2047 14.2662 166.3307 14.2662 173.0607 32.1132 173.0607 14.2662"></polygon>
                <path d="M6.294,18.7164 C7.459,15.9144 9.16,13.3884 11.274,11.2744 C13.389,9.1604 15.914,7.4584 18.717,6.2934 L16.979,2.0964 C13.621,3.4924 10.597,5.5304 8.064,8.0634 C5.531,10.5964 3.492,13.6214 2.097,16.9784 C0.748,20.2214 0,23.7744 0,27.5004 L4.543,27.5004 C4.543,24.3894 5.168,21.4244 6.294,18.7164" id="Fill-1247"></path>
                <path d="M43.7257,11.275 C45.8397,13.389 47.5417,15.914 48.7067,18.716 L52.9037,16.978 C51.5077,13.621 49.4687,10.596 46.9367,8.064 C44.4047,5.531 41.3787,3.492 38.0217,2.096 C34.7797,0.748 31.2257,0 27.4997,0 L27.4997,4.543 C30.6107,4.543 33.5767,5.168 36.2837,6.293 C39.0857,7.458 41.6117,9.16 43.7257,11.275" id="Fill-1249"></path>
                <path d="M50.4571,27.5001 C50.4571,30.6101 49.8321,33.5771 48.7071,36.2841 C47.5421,39.0861 45.8401,41.6111 43.7261,43.7251 C41.6111,45.8391 39.0871,47.5411 36.2851,48.7061 L38.0231,52.9031 C41.3801,51.5071 44.4041,49.4681 46.9361,46.9361 C49.4691,44.4041 51.5081,41.3791 52.9031,38.0221 C54.2521,34.7791 55.0001,31.2261 55.0001,27.5001 L50.4571,27.5001 Z" id="Fill-1251"></path>
                <path d="M18.7149,48.7062 C15.9129,47.5412 13.3889,45.8392 11.2749,43.7262 C9.1609,41.6112 7.4589,39.0862 6.2939,36.2842 L2.0969,38.0222 C3.4919,41.3792 5.5309,44.4042 8.0639,46.9362 C10.5969,49.4692 13.6199,51.5072 16.9769,52.9032 C20.2209,54.2512 23.7749,55.0002 27.4999,55.0002 L27.4999,50.4572 C24.3899,50.4572 21.4229,49.8322 18.7149,48.7062" id="Fill-1253"></path>
                <path d="M10.5714,20.4884 L14.7684,22.2264 C15.4674,20.5444 16.4894,19.0284 17.7584,17.7594 C19.0284,16.4884 20.5454,15.4674 22.2274,14.7674 C23.8524,14.0924 25.6334,13.7174 27.5004,13.7174 L27.5004,9.1744 C25.0174,9.1744 22.6504,9.6724 20.4894,10.5714 C18.2524,11.5014 16.2354,12.8604 14.5484,14.5474 C12.8604,16.2354 11.5024,18.2514 10.5714,20.4884" id="Fill-1255"></path>
                <path d="M44.4288,34.5123 L40.2328,32.7743 C39.5328,34.4563 38.5108,35.9723 37.2418,37.2413 C35.9728,38.5113 34.4568,39.5323 32.7758,40.2323 C31.1498,40.9083 29.3678,41.2833 27.4998,41.2833 L27.4998,45.8253 C29.9838,45.8253 32.3518,45.3273 34.5138,44.4283 C36.7498,43.4983 38.7658,42.1393 40.4518,40.4523 C42.1408,38.7643 43.4988,36.7493 44.4288,34.5123" id="Fill-1257"></path>
                <path d="M40.2325,22.2267 C40.9085,23.8517 41.2835,25.6327 41.2835,27.4997 L45.8265,27.4997 C45.8265,25.0177 45.3275,22.6497 44.4285,20.4887 C43.4995,18.2507 42.1405,16.2357 40.4525,14.5477 C38.7645,12.8597 36.7495,11.5007 34.5115,10.5717 L32.7735,14.7677 C34.4565,15.4677 35.9715,16.4897 37.2415,17.7587 C38.5105,19.0277 39.5335,20.5437 40.2325,22.2267" id="Fill-1259"></path>
                <path d="M14.7687,32.774 C14.0927,31.149 13.7177,29.367 13.7177,27.5 L9.1737,27.5 C9.1737,29.983 9.6727,32.351 10.5717,34.512 C11.5017,36.749 12.8607,38.765 14.5477,40.452 C16.2357,42.14 18.2507,43.498 20.4877,44.428 L22.2257,40.232 C20.5427,39.532 19.0287,38.511 17.7587,37.241 C16.4897,35.972 15.4677,34.457 14.7687,32.774" id="Fill-1261"></path>
                <path d="M24.2433,24.2423 C24.6673,23.8183 25.1753,23.4763 25.7383,23.2423 C26.2813,23.0173 26.8763,22.8913 27.5003,22.8913 C28.1243,22.8913 28.7203,23.0173 29.2633,23.2423 C29.8253,23.4763 30.3333,23.8183 30.7583,24.2423 C31.1813,24.6673 31.5233,25.1743 31.7573,25.7373 L35.9543,23.9983 C35.4903,22.8813 34.8113,21.8743 33.9693,21.0323 C33.1263,20.1883 32.1193,19.5103 31.0013,19.0453 C29.9223,18.5973 28.7403,18.3483 27.5003,18.3483 C26.2613,18.3483 25.0783,18.5973 23.9993,19.0453 C22.8823,19.5103 21.8753,20.1883 21.0323,21.0313 C20.1883,21.8743 19.5103,22.8813 19.0463,23.9983 C18.5973,25.0773 18.3473,26.2603 18.3473,27.5003 C18.3473,28.7403 18.5973,29.9233 19.0463,31.0023 C19.5113,32.1193 20.1893,33.1253 21.0323,33.9693 C21.8743,34.8113 22.8813,35.4893 23.9973,35.9543 C25.0773,36.4033 26.2603,36.6523 27.5003,36.6523 C28.7403,36.6523 29.9243,36.4033 31.0033,35.9543 C32.1203,35.4893 33.1263,34.8113 33.9693,33.9683 C34.8113,33.1253 35.4903,32.1193 35.9543,31.0023 L31.7573,29.2633 C31.5233,29.8253 31.1813,30.3333 30.7583,30.7573 C30.3343,31.1813 29.8263,31.5223 29.2643,31.7563 C28.7213,31.9833 28.1253,32.1093 27.5003,32.1093 C26.8753,32.1093 26.2803,31.9833 25.7363,31.7563 C25.1743,31.5223 24.6673,31.1813 24.2433,30.7573 C23.8183,30.3333 23.4773,29.8253 23.2433,29.2633 C23.0173,28.7203 22.8913,28.1243 22.8913,27.5003 C22.8913,26.8753 23.0173,26.2813 23.2433,25.7373 C23.4773,25.1743 23.8183,24.6673 24.2433,24.2423" id="Fill-1263"></path>
            </g>
        </g>
    </g>
</svg>