<?xml version="1.0" encoding="UTF-8"?>
<svg id="Layer_1" data-name="Layer 1" xmlns="http://www.w3.org/2000/svg" viewBox="0 0 51.5 51.5">
  <defs>
    <style>
      .cls-1 {
        fill: #ec0000;
      }
    </style>
  </defs>
  <g>
    <path class="cls-1" d="M8.99,37.72c-2.42-3.38-3.84-7.51-3.84-11.97C5.15,14.37,14.37,5.15,25.75,5.15c4.47,0,8.6,1.43,11.97,3.84l3.68-3.68C37.07,1.98,31.64,0,25.75,0,11.53,0,0,11.53,0,25.75c0,5.89,1.98,11.31,5.31,15.65l3.68-3.68Z"/>
    <path class="cls-1" d="M45.81,9.62l-3.67,3.67c2.64,3.46,4.21,7.78,4.21,12.47,0,11.38-9.22,20.6-20.6,20.6-4.69,0-9.01-1.57-12.47-4.21l-3.67,3.67c4.42,3.56,10.03,5.69,16.14,5.69,14.22,0,25.75-11.53,25.75-25.75,0-6.11-2.13-11.72-5.69-16.14Z"/>
  </g>
  <path class="cls-1" d="M25.15,13.38h-3.14v4.87h2.79c4.99,0,8.1,2.87,8.1,7.5s-3.28,7.46-7.97,7.46h-2.92v-14.96h-5.16v19.87h8.42c7.3,0,12.81-5.32,12.81-12.37s-5.32-12.37-12.94-12.37Z"/>
</svg>