<?xml version="1.0" encoding="UTF-8" standalone="no"?>
<svg
   xmlns:dc="http://purl.org/dc/elements/1.1/"
   xmlns:cc="http://creativecommons.org/ns#"
   xmlns:rdf="http://www.w3.org/1999/02/22-rdf-syntax-ns#"
   xmlns:svg="http://www.w3.org/2000/svg"
   xmlns="http://www.w3.org/2000/svg"
   version="1.1"
   width="141"
   height="35">
  <path
     d="m 0.482,1.1624 19.65,0 0,3.269 -15.884,0 0,7.497 15.138,0 0,3.27 -15.138,0 0,11.335 -3.766,0 0,-25.371 z"
     id="F"
     style="fill:#dd1731" />
  <path
     d="m 24.0046,7.9138 3.553,0 0,18.62 -3.553,0 0,-18.62 z m 0,-6.965 3.553,0 0,3.909 -3.553,0 0,-3.909 z"
     id="i"
     style="fill:#dd1731" />
  <path
     d="m 33.6004,7.914 3.553,0 0,3.411 0.071,0 c 1.67,-2.95 4.051,-4.051 6.396,-4.051 0.889,0 1.351,0.036 2.026,0.213 l 0,3.838 c -0.889,-0.213 -1.564,-0.355 -2.523,-0.355 -3.518,0 -5.97,2.061 -5.97,6.112 l 0,9.452 -3.553,0 0,-18.62 z"
     id="r"
     style="fill:#dd1731" />
  <path
     d="m 63.9077,15.518 c -0.533,-3.376 -3.162,-5.259 -6.503,-5.259 -3.268,0 -6.218,1.919 -6.751,5.259 l 13.254,0 z m -13.361,2.772 c 0.285,3.837 3.696,5.898 6.858,5.898 2.026,0 4.798,-0.675 6.006,-3.305 l 3.766,0 c -1.776,4.478 -5.934,6.29 -9.594,6.29 -7.249,0 -10.802,-4.584 -10.802,-9.949 0,-5.366 3.553,-9.95 10.802,-9.95 4.904,0 10.091,2.843 10.091,10.554 l 0,0.462 -17.127,0 z"
     id="e1"
     style="fill:#dd1731" />
  <path
     d="m 72.0441,1.1624 20.397,0 0,3.269 -16.63,0 0,7.356 16.132,0 0,3.269 -16.132,0 0,8.208 16.985,0 0,3.269 -20.752,0 0,-25.371 z"
     id="E"
     style="fill:#090e14" />
  <path
     d="m 111.3415,7.914 3.98,0 -9.737,21.817 c -1.777,3.944 -3.162,4.619 -6.466,4.619 -0.889,0 -1.777,-0.071 -2.701,-0.142 l 0,-2.984 c 0.64,0.035 1.208,0.142 2.062,0.142 2.202,0 2.735,-0.463 3.873,-2.843 l 0.817,-1.706 -8.6,-18.903 4.087,0 6.396,14.71 6.289,-14.71 z"
     id="y"
     style="fill:#090e14" />
  <path
     d="m 133.1562,15.518 c -0.533,-3.376 -3.163,-5.259 -6.502,-5.259 -3.27,0 -6.219,1.919 -6.752,5.259 l 13.254,0 z m -13.361,2.772 c 0.285,3.837 3.696,5.898 6.859,5.898 2.024,0 4.796,-0.675 6.005,-3.305 l 3.766,0 c -1.777,4.478 -5.934,6.29 -9.594,6.29 -7.248,0 -10.803,-4.584 -10.803,-9.949 0,-5.366 3.555,-9.95 10.803,-9.95 4.904,0 10.091,2.843 10.091,10.554 l 0,0.462 -17.127,0 z"
     id="e2"
     style="fill:#090e14" />
  <path
     d="m 135.3544,5.5806 0,-0.294 2.097,0 0,0.294 -0.874,0 0,2.33 -0.349,0 0,-2.33 -0.874,0 z"
     id="T"
     style="fill:#090e14" />
  <path
     d="m 138.2278,5.2866 0.827,2.205 0.83,-2.205 0.478,0 0,2.624 -0.33,0 0,-2.183 -0.009,0 -0.819,2.183 -0.297,0 -0.819,-2.183 -0.008,0 0,2.183 -0.331,0 0,-2.624 0.478,0 z"
     id="M"
     style="fill:#090e14" />
</svg>