<?xml version="1.0" encoding="UTF-8" standalone="no"?>
<!-- Generator: Adobe Illustrator 27.3.1, SVG Export Plug-In . SVG Version: 6.00 Build 0)  -->

<svg
   version="1.1"
   id="Layer_1"
   x="0px"
   y="0px"
   viewBox="0 0 500 326.99999"
   xml:space="preserve"
   width="500"
   height="327"
   xmlns:xlink="http://www.w3.org/1999/xlink"
   xmlns="http://www.w3.org/2000/svg"
   xmlns:svg="http://www.w3.org/2000/svg"><defs
   id="defs7" />
<style
   type="text/css"
   id="style1">
	.st0{opacity:0.6;}
	.st1{fill-rule:evenodd;clip-rule:evenodd;fill:#FF8000;}
	.st2{fill-rule:evenodd;clip-rule:evenodd;fill:#FFFFFF;}
	
		.st3{clip-path:url(#SVGID_00000096744802031524991030000008226421116532076957_);fill-rule:evenodd;clip-rule:evenodd;fill:#FFFFFF;}
	.st4{clip-path:url(#SVGID_00000096744802031524991030000008226421116532076957_);fill:#FFFFFF;}
</style>
<g
   id="g7"
   transform="translate(100,63.5)">
	<polygon
   class="st1"
   points="113.9,62.1 115.8,50.3 132.2,50.3 130.3,62.1 "
   id="polygon1" />
	<polygon
   class="st2"
   points="122.7,108.9 128.4,73.4 112.1,73.4 106.3,108.9 "
   id="polygon2" />
	<g
   id="g6">
		<defs
   id="defs2"><rect
     id="SVGID_1_"
     x="-1.3"
     y="28.6"
     width="287.5"
     height="114.2" /></defs>
		<clipPath
   id="SVGID_00000143618964092627778670000004452103477502387903_">
			<use
   xlink:href="#SVGID_1_"
   style="overflow:visible"
   id="use2" />
		</clipPath>
		
			<path
   style="clip-rule:evenodd;fill:#ffffff;fill-rule:evenodd"
   d="m 187.2,73.4 c 0.2,2 0.8,3.6 1.7,5.2 1.7,2.8 4.1,5 6.9,7.4 0.9,0.7 1.8,1.4 2.3,2.3 0.7,0.9 1,1.8 0.7,3.3 -0.4,2.6 -3.2,3.9 -5.5,3.9 -4.2,0 -7.6,-3.3 -9.3,-6.5 l -3,18.3 c 3.6,1.5 7.8,2.4 11.9,2.4 11.4,0 20.7,-8.7 22.5,-19.6 0.7,-4.4 0.2,-7.5 -1.3,-10.1 -1.4,-2.5 -3.4,-4.4 -6.2,-6.5 z"
   clip-path="url(#SVGID_00000143618964092627778670000004452103477502387903_)"
   id="path2" />
		
			<polygon
   style="clip-rule:evenodd;fill:#ffffff;fill-rule:evenodd"
   points="244.6,73.4 228.2,73.4 222.5,108.9 238.9,108.9 "
   clip-path="url(#SVGID_00000143618964092627778670000004452103477502387903_)"
   id="polygon3" />
		
			<path
   style="clip-rule:evenodd;fill:#ffffff;fill-rule:evenodd"
   d="m 208.8,50.4 c -10.3,0 -16.5,5.5 -19.5,11.8 h 66.9 l 1.9,-11.8 z"
   clip-path="url(#SVGID_00000143618964092627778670000004452103477502387903_)"
   id="path3" />
		
			<path
   style="clip-rule:evenodd;fill:#ffffff;fill-rule:evenodd"
   d="M 179.3,62.2 C 177.8,53 169.3,50.4 157.8,50.4 h -15.9 l -2,11.8 z"
   clip-path="url(#SVGID_00000143618964092627778670000004452103477502387903_)"
   id="path4" />
		
			<path
   style="clip-rule:evenodd;fill:#ffffff;fill-rule:evenodd"
   d="m 178.4,73.4 h -16.6 -7 -16.5 l -5.7,35.6 h 16.2 l 3.9,-24.5 h 0.2 L 158,109 h 17.8 l -8.2,-24.5 c 5.4,-2.1 9,-6.2 10.8,-11.1"
   clip-path="url(#SVGID_00000143618964092627778670000004452103477502387903_)"
   id="path5" />
		<path
   style="fill:#ffffff"
   d="m 160.2,115.9 c 1.7,9.9 -8.3,12.9 -13.5,13.3 -14.4,1 -37.7,-5.7 -59.5,-18.9 -2.2,-1.4 -4.4,-2.7 -6.4,-4.1 L 84.4,86.5 H 100 l 2.2,-13.1 -15.5,0.1 1.8,-11.3 15.5,-0.1 2,-11.8 H 73.2 L 65.9,94.9 C 48.7,79.9 40.3,64.6 45.6,53.7 48.2,48.3 53.5,46.8 65.8,47.3 50.5,42 30.6,42.2 25.7,50.5 c -7.8,13.2 9.6,41.9 50.7,64.6 36.7,20.3 68,24.9 80.5,16.6 1.5,-1 2.8,-2.6 3.4,-3.8 1.6,-2.5 2.4,-7.6 -0.1,-12"
   clip-path="url(#SVGID_00000143618964092627778670000004452103477502387903_)"
   id="path6" />
	</g>
</g>
</svg>
