<?xml version="1.0" encoding="utf-8"?>
<!-- Generator: Adobe Illustrator 27.3.1, SVG Export Plug-In . SVG Version: 6.00 Build 0)  -->
<svg version="1.1" id="Camada_1" xmlns="http://www.w3.org/2000/svg" xmlns:xlink="http://www.w3.org/1999/xlink" x="0px" y="0px"
	 viewBox="0 0 467.4 185.7" style="enable-background:new 0 0 467.4 185.7;" xml:space="preserve">
<style type="text/css">
	.st0{fill-rule:evenodd;clip-rule:evenodd;fill:#FF8000;}
	.st1{fill-rule:evenodd;clip-rule:evenodd;fill:#FFFFFF;}
	
		.st2{clip-path:url(#SVGID_00000176762192859716538330000003283279457200871060_);fill-rule:evenodd;clip-rule:evenodd;fill:#FFFFFF;}
	.st3{clip-path:url(#SVGID_00000176762192859716538330000003283279457200871060_);fill:#FFFFFF;}
</style>
<polygon class="st0" points="216.9,35.2 213.8,54.4 187.2,54.4 190.3,35.2 "/>
<polygon class="st1" points="184.3,72.7 174.9,130.5 201.5,130.5 210.8,72.7 "/>
<g>
	<defs>
		<rect id="SVGID_1_" width="467.4" height="185.7"/>
	</defs>
	<clipPath id="SVGID_00000091720655726036426620000002706978467550239366_">
		<use xlink:href="#SVGID_1_"  style="overflow:visible;"/>
	</clipPath>
	
		<path style="clip-path:url(#SVGID_00000091720655726036426620000002706978467550239366_);fill-rule:evenodd;clip-rule:evenodd;fill:#FFFFFF;" d="
		M306.3,72.7c0.4,3.3,1.3,5.9,2.8,8.5c2.7,4.5,6.6,8.2,11.2,12.1c1.5,1.1,2.9,2.3,3.8,3.7c1.1,1.4,1.6,3,1.2,5.3
		c-0.7,4.2-5.2,6.3-8.9,6.3c-6.8,0-12.4-5.3-15.1-10.6l-4.9,29.8c5.9,2.5,12.6,3.9,19.4,3.9c18.6,0,33.7-14.1,36.6-31.8
		c1.2-7.2,0.3-12.2-2.1-16.5c-2.2-4-5.5-7.1-10-10.6h-34V72.7z"/>
	
		<polygon style="clip-path:url(#SVGID_00000091720655726036426620000002706978467550239366_);fill-rule:evenodd;clip-rule:evenodd;fill:#FFFFFF;" points="
		363.8,130.5 390.4,130.5 399.7,72.7 373.1,72.7 	"/>
	
		<path style="clip-path:url(#SVGID_00000091720655726036426620000002706978467550239366_);fill-rule:evenodd;clip-rule:evenodd;fill:#FFFFFF;" d="
		M341.5,35.3c-16.7,0-26.8,9-31.7,19.2h108.7l3.1-19.2H341.5z"/>
	
		<path style="clip-path:url(#SVGID_00000091720655726036426620000002706978467550239366_);fill-rule:evenodd;clip-rule:evenodd;fill:#FFFFFF;" d="
		M293.6,54.5c-2.4-14.9-16.3-19.2-35-19.2h-25.8l-3.2,19.2H293.6z"/>
	
		<path style="clip-path:url(#SVGID_00000091720655726036426620000002706978467550239366_);fill-rule:evenodd;clip-rule:evenodd;fill:#FFFFFF;" d="
		M292,72.7h-27h-11.4h-26.9l-9.3,57.8h26.3l6.4-39.8h0.3l8.3,39.8h28.9l-13.3-39.8C283.3,87.4,289.1,80.7,292,72.7"/>
	<path style="clip-path:url(#SVGID_00000091720655726036426620000002706978467550239366_);fill:#FFFFFF;" d="M262.5,141.8
		c2.8,16.1-13.5,21-21.9,21.6c-23.4,1.7-61.3-9.3-96.7-30.8c-3.6-2.2-7.1-4.4-10.4-6.7l5.9-32h25.2l3.5-21.3l-25.2,0.1l2.9-18.3
		l25.2-0.1l3.2-19.2H121l-11.8,72.5c-28-24.2-41.7-49.2-33.1-66.8C80.4,32,89,29.6,108.9,30.4c-24.8-8.6-57.3-8.3-65.2,5.2
		C31.1,57,59.3,103.7,126.2,140.7c59.6,33,110.5,40.4,130.9,27c2.5-1.6,4.6-4.3,5.6-6.1C265.3,157.3,266.5,149,262.5,141.8"/>
</g>
</svg>
