<?xml version="1.0" encoding="UTF-8" standalone="no"?>
<svg
   xmlns:dc="http://purl.org/dc/elements/1.1/"
   xmlns:cc="http://creativecommons.org/ns#"
   xmlns:rdf="http://www.w3.org/1999/02/22-rdf-syntax-ns#"
   xmlns:svg="http://www.w3.org/2000/svg"
   xmlns="http://www.w3.org/2000/svg"
   xmlns:xlink="http://www.w3.org/1999/xlink"
   version="1.1"
   width="309"
   height="48">
  <path
     d="m 29.05225,45.60338 c 0,0 -6.24125,-8.015 -9.09,-11.6725 l 0,13.50374 20.55,0 0,-13.0425 c -2.53,3.40125 -8.3425,11.21126 -8.3425,11.21126 l -3.1175,0 z M 0.266,0.74838 l 0,46.68624 11.9875,0 0,-27.00249 6.76,0 c 0,0 9.2825,12.09999 11.67125,15.2125 2.2425,-3.17876 10.73125,-15.2125 10.73125,-15.2125 l 5.53375,0 0,-19.68375 -46.68375,0 z"
     id="M"
     style="fill:#960a2c" />
  <path
     d="m 78.11475,38.14976 -6.78,-12.12 -6.72,12.12 13.5,0 z m -8.88,-15.84 4.38,0 15.06,25.44 -5.22,0 -3.3,-5.94 -17.58,0 -3.24,5.94 -4.8,0 14.7,-25.44 z"
     id="a"
     style="fill:#960a2c" />
  <path
     d="m 100.73375,31.97 0,15.78 -4.44,0 0,-25.44 3.66,0 18.66,16.62 c 1.2,1.02 2.16,2.16 3.06125,3.48 -0.30125,-1.62 -0.42,-3.18 -0.42,-4.74 l 0,-15.36 4.44,0 0,25.44 -3.30125,0 -19.02,-16.86 c -1.14,-1.02 -2.16,-2.1 -3,-3.48 0.24,1.5 0.36,3.06 0.36,4.56"
     id="n"
     style="fill:#960a2c" />
  <path
     d="m 144.23312,26.08975 0,17.82 9.30125,0 c 7.67875,0 11.46,-2.1 11.46,-9 0,-6.66 -3.84,-8.82 -11.46,-8.82 l -9.30125,0 z m 20.04126,-1.8 c 3.41875,2.16 5.52,6.12 5.52,10.68 0,8.64 -5.22001,12.78 -15.72001,12.78 l -14.64125,0 0,-25.44 14.64125,0 c 4.49875,0 7.92,0.54 10.20001,1.98"
     id="d"
     style="fill:#960a2c" />
  <path
     d="m 181.07275,22.37 4.8,0 0,25.38 -4.8,0 0,-25.38 z"
     id="i"
     style="fill:#960a2c" />
  <use
     transform="translate(138.83713,0)"
     xlink:href="#a" />
  <use
     transform="translate(138.83749,0)"
     xlink:href="#n" />
  <path
     d="m 288.53187,47.75 -4.79999,0 0,-21.66 -12,0 0,-3.78 28.86,0 0,3.78 -12.06001,0 0,21.66 z"
     id="t"
     style="fill:#960a2c" />
  <path
     d="m 305.23936,18.50075 -0.7525,0 0,1.4375 0.7525,0 c 0.4075,0 0.70125,-0.05 0.87875,-0.15 0.17625,-0.10125 0.2675,-0.285 0.2675,-0.54875 0,-0.495 -0.38125,-0.73875 -1.14625,-0.73875 m 0.11875,-0.41125 c 1.1,0 1.6525,0.37125 1.6525,1.11 0,0.28125 -0.0838,0.515 -0.255,0.70875 -0.16625,0.1875 -0.3975,0.30375 -0.6875,0.34125 l 0.895,1.8475 -0.695,0 -0.84625,-1.7575 -0.935,0 0,1.7575 -0.59875,0 0,-4.0075 1.47,0 z m 2.99625,2.07875 c 0,-0.87875 -0.295,-1.61125 -0.88625,-2.2025 -0.6125,-0.60875 -1.34625,-0.9125 -2.21625,-0.9125 -0.8525,0 -1.57125,0.2975 -2.15875,0.8925 -0.62125,0.62875 -0.93625,1.36375 -0.93625,2.21 0,0.8425 0.3075,1.57125 0.915,2.1825 0.60875,0.605 1.3375,0.90875 2.18,0.90875 0.84875,0 1.585,-0.3075 2.21625,-0.9225 0.59125,-0.5775 0.88625,-1.29625 0.88625,-2.15625 m -3.1025,-3.495 c 0.97625,0 1.805,0.3375 2.47375,1.01875 0.675,0.675 1.00875,1.4975 1.00875,2.46375 0,0.9725 -0.33375,1.7875 -1.00125,2.44 -0.71,0.68125 -1.535,1.02625 -2.48125,1.02625 -0.955,0 -1.7725,-0.345 -2.45375,-1.02625 -0.6825,-0.67875 -1.0225,-1.49 -1.0225,-2.44 0,-0.94625 0.3475,-1.775 1.0425,-2.48 0.655,-0.66875 1.465,-1.0025 2.43375,-1.0025"
     id="(R)"
     style="fill:#960a2c" />
</svg>