<svg width="122" height="44" viewBox="0 0 122 44" fill="none" xmlns="http://www.w3.org/2000/svg">
<g clip-path="url(#clip0_134_802)">
<path d="M70.3409 37.2223C69.7935 37.2223 69.2787 37.3548 68.8222 37.587L54.4266 21.0023C55.4837 19.6123 56.1117 17.8801 56.1117 15.9981C56.1117 11.4344 52.4206 7.73415 47.868 7.73415C44.6642 7.73415 41.8894 9.56791 40.5252 12.2446L21.5598 3.84127C21.5804 3.69333 21.5941 3.54195 21.5941 3.38885C21.5941 1.51724 20.0806 0 18.2136 0C16.3465 0 14.833 1.51724 14.833 3.38885C14.833 5.26046 16.3465 6.7777 18.2136 6.7777C19.3135 6.7777 20.2882 6.24787 20.906 5.43248L39.9091 13.8513C39.7255 14.5359 39.626 15.255 39.626 15.9981C39.626 18.4993 40.7362 20.7391 42.4883 22.2546L32.3466 35.8358C31.9537 35.6758 31.5247 35.5864 31.0751 35.5864C29.2081 35.5864 27.6945 37.1036 27.6945 38.9752C27.6945 40.8468 29.2081 42.3641 31.0751 42.3641C32.9421 42.3641 34.4556 40.8468 34.4556 38.9752C34.4556 38.1787 34.1793 37.4477 33.7195 36.8679L43.8954 23.2386C45.0743 23.8888 46.4265 24.2604 47.868 24.2604C49.9221 24.2604 51.7994 23.5052 53.2443 22.258L67.5335 38.7223C67.1714 39.2625 66.9604 39.911 66.9604 40.6112C66.9604 42.4828 68.4739 44 70.3409 44C72.2079 44 73.7215 42.4828 73.7215 40.6112C73.7215 38.7395 72.2079 37.2223 70.3409 37.2223Z" fill="#D7AC28"/>
<path d="M117.87 3.22369V14.4499C117.808 14.4602 117.745 14.4688 117.683 14.4791C116.322 10.7101 114.963 6.94282 113.616 3.21509H109.587C109.587 9.8999 109.564 16.6277 109.564 23.2816H113.637C113.637 19.4403 113.659 15.556 113.659 11.7595C113.707 11.7491 113.755 11.7371 113.803 11.7268C115.198 15.5508 116.592 19.442 117.992 23.2798H122C122 16.5675 122 9.86721 122 3.22025H117.87V3.22369Z" fill="#FDFCFD"/>
<path d="M102.818 6.67274C102.793 4.5861 101.799 3.2168 99.7348 3.2168H93.5846C91.6523 3.2168 90.6622 4.57062 90.6485 6.51964C90.6159 10.9595 90.6159 15.3995 90.6485 19.8376C90.6639 21.9174 91.7673 23.0958 93.8608 23.1973C95.7708 23.2901 97.691 23.2901 99.6009 23.1973C101.667 23.0975 102.746 21.8899 102.822 19.817C102.83 19.5882 102.827 19.3594 102.827 19.1289C102.827 17.1524 102.827 15.1758 102.827 13.1993C102.827 11.0232 102.848 8.84538 102.82 6.6693L102.818 6.67274ZM98.283 13.2302C98.283 15.0915 98.2882 16.9528 98.2813 18.8141C98.2779 19.7637 98.1234 19.9168 97.1985 19.934C96.7987 19.9409 96.3971 19.9563 95.999 19.9271C95.3538 19.8806 95.1496 19.6691 95.141 19.0033C95.1256 17.8301 95.1359 16.6552 95.1359 15.482C95.1359 12.8759 95.1324 10.2715 95.1359 7.66531C95.1359 6.65553 95.2611 6.53856 96.2787 6.52652C96.6219 6.52308 96.9651 6.51963 97.3066 6.52652C98.1286 6.54544 98.2641 6.66585 98.2762 7.47436C98.2916 8.47553 98.2796 9.47843 98.2796 10.4813C98.2796 11.3982 98.2796 12.3134 98.2796 13.2302H98.283Z" fill="#FDFCFD"/>
<path d="M12.0896 5.70597C11.8974 4.59126 11.2539 3.80339 10.1814 3.49375C9.45205 3.28389 8.66955 3.2168 7.90593 3.2168C5.49149 3.2168 0.32801 3.2168 0.00196718 3.2168C0.00196718 9.90676 -0.00146484 16.5331 -0.00146484 23.1783H4.48763V16.2475C5.62534 16.2475 6.65324 16.2527 7.68113 16.2441C8.16676 16.2406 8.65411 16.232 9.13631 16.1856C10.9742 16.0067 11.9729 15.0124 12.1771 13.1769C12.2028 12.9498 12.2063 12.7193 12.2063 12.4905C12.208 10.6275 12.2148 8.76453 12.2028 6.90153C12.2011 6.50243 12.1565 6.0999 12.0879 5.70769L12.0896 5.70597ZM7.65196 12.1861C7.65196 12.6832 7.36367 12.912 6.89176 12.9172C6.12299 12.924 5.35421 12.9189 4.49277 12.9189V6.54544C5.35593 6.54544 6.22766 6.52652 7.09768 6.55404C7.46663 6.56608 7.64681 6.84304 7.64852 7.20085C7.65539 8.86259 7.65539 10.5243 7.65196 12.1861Z" fill="#FDFCFD"/>
<path d="M84.447 6.4147C84.3097 4.51901 83.3539 3.2168 81.4508 3.2168H75.3985C73.5074 3.2168 72.5207 4.58094 72.4709 6.46287C72.4452 7.43652 72.4606 8.41189 72.4606 9.38554C72.4606 12.8828 72.4452 16.3783 72.4709 19.8755C72.4847 21.7798 73.2432 23.2059 75.1256 23.2059C77.4045 23.2059 79.4568 23.2454 81.6259 23.2368C81.7941 23.2368 81.9657 23.1835 82.1287 23.1319C83.3196 22.7552 84.2531 21.9002 84.3406 20.6186C84.4367 19.208 84.3629 17.7837 84.3629 16.3421H79.8876C79.8876 17.3554 79.8996 18.3273 79.8841 19.2992C79.8738 19.9546 79.716 20.1094 79.0776 20.1404C78.7069 20.1593 78.3346 20.1507 77.9622 20.1438C77.1213 20.1266 76.9635 19.977 76.9566 19.1341C76.9463 17.7011 76.9532 16.2682 76.9532 14.8352C76.9532 12.3994 76.9515 9.96353 76.9532 7.52597C76.9532 6.45771 77.0905 6.31493 78.1098 6.29601C78.3672 6.29084 78.6246 6.28912 78.882 6.29601C79.728 6.32525 79.8755 6.46803 79.8841 7.31094C79.8927 8.25363 79.8858 9.19803 79.8858 10.1837H84.459C84.459 9.07761 84.459 8.0472 84.459 7.01678C84.459 6.81551 84.4624 6.61425 84.447 6.4147Z" fill="#FDFCFD"/>
<path d="M33.8865 17.7356C33.5021 15.3875 31.7518 4.9629 31.4412 3.1687H26.7925C27.0104 4.26105 30.7736 21.3257 31.1889 23.199H36.711C37.4489 19.9065 40.8501 4.43823 41.1263 3.1687H36.488L33.8865 17.7356Z" fill="#FDFCFD"/>
<path d="M55.2231 6.55232H58.8233V23.211H63.3691V6.52308H66.9607V3.2168H55.2231V6.55232Z" fill="#FDFCFD"/>
<path d="M16.3711 23.1785H20.6234V7.45215H16.3711V23.1785Z" fill="#FDFCFD"/>
</g>
<defs>
<clipPath id="clip0_134_802">
<rect width="122" height="44" fill="white"/>
</clipPath>
</defs>
</svg>
