<?xml version="1.0" encoding="UTF-8" standalone="no"?>
<!-- Created with Inkscape (http://www.inkscape.org/) -->

<svg
   version="1.1"
   id="svg1"
   width="404"
   height="110"
   viewBox="39 23 404 110"
   sodipodi:docname="RayvenX-logo-withtext.svg"
   inkscape:export-filename="fronend_logos/logo.svg"
   inkscape:export-xdpi="1000"
   inkscape:export-ydpi="1000"
   inkscape:version="1.3.2 (091e20e, 2023-11-25)"
   xmlns:inkscape="http://www.inkscape.org/namespaces/inkscape"
   xmlns:sodipodi="http://sodipodi.sourceforge.net/DTD/sodipodi-0.dtd"
   xmlns:xlink="http://www.w3.org/1999/xlink"
   xmlns="http://www.w3.org/2000/svg"
   xmlns:svg="http://www.w3.org/2000/svg">
  <defs
     id="defs1">
    <linearGradient
       id="linearGradient28"
       inkscape:collect="always">
      <stop
         style="stop-color:#000000;stop-opacity:1;"
         offset="0"
         id="stop28" />
      <stop
         style="stop-color:#000000;stop-opacity:0;"
         offset="1"
         id="stop29" />
    </linearGradient>
    <linearGradient
       id="linearGradient10"
       inkscape:collect="always">
      <stop
         style="stop-color:#1a1a1a;stop-opacity:1;"
         offset="0"
         id="stop10" />
      <stop
         style="stop-color:#1a1a1a;stop-opacity:0;"
         offset="1"
         id="stop11" />
    </linearGradient>
    <linearGradient
       id="linearGradient1"
       inkscape:collect="always">
      <stop
         style="stop-color:#000000;stop-opacity:1;"
         offset="0"
         id="stop1" />
      <stop
         style="stop-color:#000000;stop-opacity:0;"
         offset="1"
         id="stop2" />
    </linearGradient>
    <linearGradient
       id="linearGradient25"
       inkscape:collect="always">
      <stop
         style="stop-color:#000000;stop-opacity:1;"
         offset="0"
         id="stop25" />
      <stop
         style="stop-color:#000000;stop-opacity:0;"
         offset="1"
         id="stop26" />
    </linearGradient>
    <linearGradient
       id="swatch6"
       inkscape:swatch="solid">
      <stop
         style="stop-color:#000000;stop-opacity:1;"
         offset="0"
         id="stop6" />
    </linearGradient>
    <linearGradient
       inkscape:collect="always"
       xlink:href="#linearGradient25"
       id="linearGradient26"
       x1="316.70038"
       y1="1143.3052"
       x2="1089.8721"
       y2="1143.3052"
       gradientUnits="userSpaceOnUse" />
    <linearGradient
       inkscape:collect="always"
       xlink:href="#linearGradient1"
       id="linearGradient2"
       x1="474.26044"
       y1="708.83679"
       x2="1242.1082"
       y2="708.83679"
       gradientUnits="userSpaceOnUse" />
    <linearGradient
       inkscape:collect="always"
       xlink:href="#linearGradient10"
       id="linearGradient11"
       x1="474.26044"
       y1="708.83679"
       x2="1242.1082"
       y2="708.83679"
       gradientUnits="userSpaceOnUse" />
    <radialGradient
       inkscape:collect="always"
       xlink:href="#linearGradient28"
       id="radialGradient29"
       cx="858.18433"
       cy="708.83679"
       fx="858.18433"
       fy="708.83679"
       r="383.92389"
       gradientTransform="matrix(1,0,0,0.24560077,0,534.74595)"
       gradientUnits="userSpaceOnUse" />
  </defs>
  <sodipodi:namedview
     id="namedview1"
     pagecolor="#ffffff"
     bordercolor="#999999"
     borderopacity="1"
     inkscape:showpageshadow="2"
     inkscape:pageopacity="0"
     inkscape:pagecheckerboard="0"
     inkscape:deskcolor="#d1d1d1"
     inkscape:zoom="2.5207424"
     inkscape:cx="206.28843"
     inkscape:cy="96.201817"
     inkscape:window-width="2352"
     inkscape:window-height="1212"
     inkscape:window-x="816"
     inkscape:window-y="98"
     inkscape:window-maximized="0"
     inkscape:current-layer="g1"
     inkscape:export-bgcolor="#ffffff00"
     showguides="true"
     inkscape:lockguides="false"
     inkscape:document-units="mm" />
  <g
     inkscape:groupmode="layer"
     id="layer2"
     inkscape:label="logo-name"
     transform="translate(-118.75581,-537.88044)" />
  <g
     inkscape:groupmode="layer"
     id="layer1"
     inkscape:label="Die-cut" />
  <g
     inkscape:groupmode="layer"
     inkscape:label="logo"
     id="g1"
     style="fill:#929292;fill-opacity:1"
     transform="translate(-118.75581,-537.88044)">
    <text
       xml:space="preserve"
       style="font-style:normal;font-variant:normal;font-weight:bold;font-stretch:normal;font-size:5.23606px;font-family:Sans;-inkscape-font-specification:'Sans, Bold';font-variant-ligatures:normal;font-variant-caps:normal;font-variant-numeric:normal;font-variant-east-asian:normal;fill:#50ffff;fill-opacity:1;stroke-width:1.00157;paint-order:markers stroke fill"
       x="553.44397"
       y="590.12128"
       id="text7"><tspan
         sodipodi:role="line"
         id="tspan7"
         x="553.44397"
         y="590.12128"
         style="font-style:normal;font-variant:normal;font-weight:bold;font-stretch:normal;font-size:5.23606px;font-family:Sans;-inkscape-font-specification:'Sans, Bold';font-variant-ligatures:normal;font-variant-caps:normal;font-variant-numeric:normal;font-variant-east-asian:normal;fill:#50ffff;fill-opacity:1;stroke-width:1.00157">®</tspan></text>
    <g
       id="g8"
       transform="translate(0.02991622,-0.28700078)">
      <path
         id="path1"
         style="fill:#00ffff;fill-opacity:1;stroke:none;stroke-width:0.999996;stroke-opacity:1"
         d="m 281.11306,564.80467 -1.09399,1.60062 c -1.38182,2.02169 -2.7918,3.69638 -5.23921,6.22314 -3.94038,4.06819 -7.15195,6.71568 -18.64055,15.36646 -13.60114,10.24148 -20.2879,15.58968 -22.72307,18.17429 -1.15732,1.22837 -1.5069,1.93705 -2.60665,5.28412 -0.55007,1.67413 -1.19099,3.40001 -1.42443,3.8353 -0.51562,0.96145 -2.22052,2.68611 -5.55571,5.62065 -1.59995,1.40776 -2.14764,1.87222 -2.44624,1.9834 -0.29867,-0.11135 -0.84648,-0.57574 -2.44605,-1.98316 -3.33519,-2.93455 -5.04007,-4.6592 -5.5557,-5.62066 -0.23345,-0.43531 -0.87437,-2.16117 -1.42445,-3.83531 -1.09973,-3.34707 -1.44931,-4.05575 -2.60664,-5.2841 -2.43516,-2.58463 -9.12193,-7.9328 -22.72305,-18.17431 -11.48861,-8.65078 -14.70017,-11.29827 -18.64056,-15.36645 -2.44741,-2.52678 -3.85739,-4.20147 -5.23922,-6.22315 l -1.09399,-1.6006 0.10496,0.84698 c 0.40504,3.27427 1.49385,7.25808 2.66144,9.7377 2.02798,4.30678 4.26362,6.71272 11.42853,12.29966 1.56682,1.22174 3.36838,2.60709 4.00359,3.07853 4.30439,3.19469 8.34253,6.13416 13.0889,9.52766 6.96057,4.97662 9.48846,6.88776 10.94402,8.27423 l 1.16571,1.11069 0.19197,1.27625 c 0.33934,2.25792 0.92736,4.59661 1.36061,5.41086 0.56665,1.06499 4.82264,5.3031 7.89571,7.86256 1.31274,1.09335 2.48872,2.08107 2.61318,2.19498 0.19553,0.17898 0.0776,0.35891 -0.86684,1.32272 -0.60124,0.61358 -2.9813,3.19447 -5.28886,5.73526 -2.30754,2.54076 -4.79834,5.2778 -5.53517,6.08237 -1.3993,1.528 -5.46013,6.0731 -7.7069,8.62586 -3.49998,3.97671 -10.02152,11.05759 -13.47103,14.6266 -1.18721,1.22837 -2.5742,2.67811 -3.08235,3.22156 -0.96221,1.02902 -0.31803,0.47573 4.09513,-3.51658 0.88123,-0.7972 2.19129,-1.98207 2.91116,-2.63304 0.7199,-0.65098 1.85925,-1.66174 2.53199,-2.24618 0.67276,-0.58446 1.64301,-1.44538 2.15596,-1.91304 0.51294,-0.46765 2.87281,-2.51151 5.24418,-4.54197 2.37139,-2.03049 4.97739,-4.28109 5.79095,-5.00125 0.81357,-0.7202 2.50833,-2.21033 3.76628,-3.31132 1.25795,-1.101 3.84428,-3.38771 5.74742,-5.08156 1.90314,-1.69384 3.89179,-3.46084 4.41907,-3.92664 0.52728,-0.46582 1.58031,-1.41841 2.34024,-2.11694 l 1.2201,-1.1213 1.21985,1.12106 c 0.75993,0.69854 1.81296,1.65116 2.34026,2.11695 0.52727,0.46581 2.51592,2.2328 4.41904,3.92666 1.90316,1.69383 4.48946,3.98054 5.74744,5.08153 1.25794,1.10102 2.9527,2.59116 3.76627,3.31132 0.81357,0.72018 3.41956,2.97076 5.79095,5.00124 2.37139,2.03048 4.73124,4.07434 5.24419,4.54202 0.51294,0.46764 1.48321,1.32855 2.15596,1.91301 0.67274,0.58446 1.81209,1.59522 2.53197,2.2462 0.71989,0.65096 2.02992,1.8358 2.91116,2.63302 4.41318,3.99232 5.05736,4.54558 4.09515,3.51656 -0.50814,-0.54343 -1.89514,-1.99317 -3.08236,-3.22152 -3.44951,-3.56904 -9.97105,-10.6499 -13.47103,-14.6266 -2.24676,-2.55279 -6.30762,-7.09788 -7.70691,-8.62587 -0.73681,-0.80458 -3.22763,-3.54163 -5.53516,-6.08239 -2.30755,-2.54077 -4.6876,-5.12167 -5.28886,-5.73525 -0.94444,-0.96382 -1.06235,-1.14375 -0.86683,-1.3227 0.12446,-0.11396 1.30043,-1.10165 2.61317,-2.195 3.07309,-2.55946 7.32907,-6.79758 7.89571,-7.86254 0.43325,-0.81425 1.02127,-3.15296 1.36062,-5.41087 l 0.19196,-1.27626 1.16573,-1.1107 c 1.45554,-1.38645 3.98344,-3.29759 10.944,-8.27421 4.74638,-3.3935 8.78453,-6.33298 13.08892,-9.52769 0.63519,-0.47143 2.43677,-1.85676 4.00357,-3.07851 7.16491,-5.58696 9.40055,-7.99288 11.42852,-12.29965 1.16762,-2.47963 2.2564,-6.46342 2.66145,-9.73769 z m -59.72985,5.75713 -2.6874,1.06624 c -3.62749,1.43903 -8.93141,3.20068 -12.82005,4.25825 -6.58568,1.79103 -17.14478,3.75228 -21.68682,4.02816 l -1.71903,0.10441 0.002,1.17023 c 9.9e-4,0.64363 0.0532,1.25019 0.11544,1.34775 0.0623,0.0976 1.08328,0.97941 2.26898,1.95973 1.18569,0.98031 2.16022,1.78407 2.16565,1.78603 0.006,0.002 0.006,-0.49544 0,-1.10528 l -0.01,-1.10888 3.54184,-0.58669 c 4.06639,-0.67368 10.3884,-1.93134 13.08868,-2.60372 4.46398,-1.11153 10.98574,-3.15065 15.45849,-4.83342 l 2.28206,-0.85874 2.28182,0.85849 c 4.47276,1.68281 10.99452,3.72192 15.45849,4.83345 2.70029,0.67237 9.02234,1.93004 13.08868,2.60371 l 3.54185,0.58669 -0.01,1.10889 c -0.006,0.60984 -0.006,1.10722 0,1.10527 0.004,-0.002 0.97996,-0.80573 2.16567,-1.78603 1.18569,-0.98031 2.20674,-1.86215 2.26896,-1.95972 0.0623,-0.0976 0.11421,-0.70412 0.11545,-1.34775 l 0.002,-1.17024 -1.71905,-0.10441 c -4.54209,-0.27585 -15.10119,-2.2371 -21.68688,-4.02815 -3.88865,-1.05756 -9.19256,-2.81921 -12.82005,-4.25823 l -2.68739,-1.06602 z m 55.43058,11.02747 -0.65913,0.76985 c -2.18517,2.55257 -5.80411,5.72843 -10.46827,9.18641 -3.42291,2.53771 -16.40982,11.57909 -21.63516,15.06238 -0.9316,0.62103 -2.26026,1.56869 -2.95267,2.10588 -1.45437,1.12837 -1.73877,1.61176 -2.53062,4.29998 -0.69011,2.34285 -1.23192,3.59107 -2.06551,4.75921 -0.39408,0.55225 -0.69312,1.00183 -0.66452,0.99903 0.0287,-0.002 1.57666,-1.00785 3.43989,-2.23332 1.86322,-1.22548 4.66963,-3.06394 6.23644,-4.08568 11.83237,-7.71602 17.01976,-11.23303 21.25238,-14.40803 4.0649,-3.04918 5.82841,-4.99199 7.45856,-8.21737 1.16677,-2.30848 2.18721,-5.38135 2.48032,-7.46849 z m -110.86095,2.5e-4 0.10827,0.76986 c 0.29311,2.08713 1.31355,5.16001 2.48032,7.46848 1.63015,3.22539 3.39367,5.16819 7.45857,8.21737 4.23261,3.17501 9.42,6.69201 21.25236,14.40805 1.56683,1.02172 4.37323,2.8602 6.23644,4.08566 1.86326,1.22548 3.41129,2.23054 3.4399,2.23333 0.0287,0.002 -0.27044,-0.44679 -0.66452,-0.99903 -0.83358,-1.16814 -1.37539,-2.41636 -2.0655,-4.75923 -0.79187,-2.68818 -1.07627,-3.1716 -2.53063,-4.29995 -0.6924,-0.5372 -2.02105,-1.48485 -2.95267,-2.10588 -5.22534,-3.48333 -18.21221,-12.52473 -21.63515,-15.06243 -4.66417,-3.45796 -8.2831,-6.63383 -10.46829,-9.18641 z m 106.18203,14.70239 -0.74957,0.70986 c -0.98338,0.93108 -5.07998,4.03374 -7.35931,5.57396 -1.97803,1.33664 -5.40651,3.53099 -10.04266,6.42773 -1.65147,1.03189 -4.14606,2.60206 -5.5435,3.48907 -1.39741,0.887 -3.89201,2.46546 -5.54352,3.50776 -4.54454,2.86816 -5.22771,3.30945 -8.39217,5.42103 -3.64309,2.43098 -7.203,4.95208 -7.26795,5.14696 -0.027,0.081 1.22039,1.40994 2.77197,2.95335 l 2.82093,2.80626 0.99158,-0.0152 c 0.54531,-0.009 1.54586,-0.10352 2.22342,-0.21159 2.06783,-0.32975 3.16031,-0.67351 4.92748,-1.54985 1.37981,-0.68428 5.30284,-3.30477 4.94734,-3.30477 -0.0534,0 -1.46547,0.13707 -3.13808,0.30473 -3.21053,0.32181 -7.84981,0.62084 -9.56422,0.61647 l -1.02226,-0.002 0.46195,-0.28243 c 0.99815,-0.61028 9.06393,-5.28685 11.31801,-6.56216 1.31272,-0.74271 2.69855,-1.53905 3.07965,-1.76955 0.38111,-0.23052 1.52446,-0.9047 2.54077,-1.49844 14.36931,-8.39478 16.78856,-10.04722 18.9913,-12.9705 1.55413,-2.0625 3.14032,-5.81622 3.46944,-8.21105 z m -101.50312,2.6e-4 0.0794,0.57903 c 0.32912,2.39485 1.9153,6.14855 3.46945,8.21106 2.20272,2.92324 4.62197,4.57568 18.99129,12.97049 1.01631,0.59373 2.15966,1.26791 2.54077,1.49842 0.38111,0.23052 1.76693,1.02686 3.07965,1.76957 2.25408,1.27532 10.31987,5.9519 11.31801,6.56217 l 0.46195,0.28241 -1.02226,0.002 c -1.71441,0.006 -6.35367,-0.29467 -9.56423,-0.61648 -1.67259,-0.16765 -3.08468,-0.30475 -3.13807,-0.30475 -0.35549,0 3.56753,2.62051 4.94734,3.30477 1.76719,0.87638 2.85965,1.22013 4.92749,1.54986 0.67755,0.10805 1.67811,0.20322 2.22341,0.21159 l 0.99158,0.0154 2.82093,-2.80628 c 1.55157,-1.54337 2.79899,-2.8723 2.77198,-2.95333 -0.0649,-0.19487 -3.62485,-2.71599 -7.26797,-5.14696 -3.16444,-2.11158 -3.84761,-2.55285 -8.39216,-5.42103 -1.65152,-1.0423 -4.1461,-2.62077 -5.54352,-3.50778 -1.39743,-0.88699 -3.89201,-2.45715 -5.54351,-3.48906 -4.63613,-2.89673 -8.06463,-5.09107 -10.04265,-6.42771 -2.27933,-1.54024 -6.37593,-4.6429 -7.35932,-5.57396 z m 95.91381,13.74576 c -0.0325,-0.0325 -0.38168,0.18723 -0.77617,0.48836 -1.04624,0.7986 -3.82244,2.38067 -11.0931,6.32195 -1.52446,0.82636 -3.60329,1.9717 -4.61959,2.54505 -1.0163,0.57335 -4.16767,2.33951 -7.00316,3.92484 -2.83548,1.58534 -5.29352,2.97905 -5.4623,3.09726 -0.27513,0.19272 -0.20388,0.21272 0.68977,0.19376 0.54816,-0.0112 1.68184,-0.0813 2.51914,-0.1552 4.38547,-0.38654 7.78037,-1.50482 13.10832,-4.31755 6.05101,-3.19447 8.55701,-5.17353 10.77459,-8.50858 0.8084,-1.21574 1.97946,-3.47293 1.8625,-3.58989 z m -90.32452,2.6e-4 c -0.11694,0.11693 1.05412,2.37414 1.86251,3.58989 2.21759,3.33505 4.72361,5.31412 10.77461,8.50857 5.32793,2.81273 8.72284,3.93102 13.10831,4.31757 0.8373,0.0737 1.97095,0.14355 2.51913,0.15518 0.89366,0.019 0.9649,-9.8e-4 0.68977,-0.19378 -0.16875,-0.11818 -2.62681,-1.5119 -5.4623,-3.09723 -2.83549,-1.58532 -5.98684,-3.3515 -7.00315,-3.92485 -1.01631,-0.57333 -3.09512,-1.71868 -4.61958,-2.54507 -7.27067,-3.94127 -10.04689,-5.52332 -11.09312,-6.32192 -0.39448,-0.30112 -0.74366,-0.52087 -0.77618,-0.48836 z m 84.35447,8.9676 c -0.0526,-0.051 -4.02884,2.29562 -4.9198,2.90349 -0.42094,0.28718 -0.62757,0.58741 -0.82874,1.20453 -1.97459,6.0574 -6.34602,13.17398 -11.21447,18.25685 l -1.21287,1.26633 1.42468,1.54377 c 0.78354,0.84911 1.48135,1.544 1.55076,1.544 0.0694,0 0.9003,-0.84892 1.84649,-1.88641 5.80361,-6.36356 9.9556,-13.45967 12.27596,-20.98057 0.80465,-2.608 1.13685,-3.79481 1.07799,-3.85199 z m -78.38441,2.5e-4 c -0.0589,0.0572 0.27334,1.24399 1.07798,3.852 2.32038,7.5209 6.47238,14.61699 12.27598,20.98057 0.94618,1.03749 1.7771,1.88641 1.8465,1.88641 0.0695,0 0.76723,-0.69489 1.55076,-1.54399 l 1.42466,-1.54378 -1.21285,-1.26632 c -4.86845,-5.08289 -9.23989,-12.19947 -11.21448,-18.25687 -0.20118,-0.6171 -0.40781,-0.91734 -0.82873,-1.20452 -0.89096,-0.60789 -4.86728,-2.95452 -4.91982,-2.9035 z m 55.10351,27.9544 c -0.0744,-0.002 -0.59403,0.3328 -1.15488,0.74437 -4.00055,2.9356 -9.39476,6.14027 -13.12412,7.7967 l -1.6324,0.72496 -1.63221,-0.72474 c -3.72935,-1.65641 -9.12356,-4.8611 -13.1241,-7.7967 -0.56087,-0.41155 -1.08057,-0.74645 -1.15491,-0.74436 -0.14701,0.003 -2.98401,2.68503 -2.98401,2.81981 0,0.14286 3.05901,2.31319 5.62044,3.98755 3.6199,2.3663 7.21082,4.33794 11.47206,6.29893 0.88926,0.40923 1.70042,0.74513 1.80248,0.74638 7e-5,0 2.7e-4,0 6.9e-4,0 V 658.52 l 2.7e-4,2.29334 c 0.1021,-9.8e-4 0.91323,-0.33715 1.80251,-0.74638 4.26122,-1.96099 7.85214,-3.93263 11.47205,-6.29893 2.56142,-1.67436 5.62043,-3.84469 5.62043,-3.98757 0,-0.13477 -2.83701,-2.81565 -2.98402,-2.8198 z"
         inkscape:export-filename="RayvenXlogo-500dpi.svg"
         inkscape:export-xdpi="500"
         inkscape:export-ydpi="500" />
      <path
         style="font-weight:bold;font-size:192px;font-family:Exo;-inkscape-font-specification:'Exo, Bold';fill:#00ffff;stroke-width:0.999996;paint-order:markers stroke fill"
         d="M 284.48033,639.50668 V 589.9377 h 20.49743 q 2.94734,0 5.49277,0.73684 2.54543,0.66985 4.48799,2.41146 1.94258,1.74161 3.01434,4.82293 1.13875,3.08132 1.13875,7.90424 0,3.41624 -0.66985,5.8277 -0.66985,2.41147 -1.80861,3.95212 -1.07174,1.54067 -2.47844,2.47844 -1.4067,0.93782 -2.88036,1.54067 l 9.24394,19.89458 h -10.11475 l -7.97121,-18.35392 q -0.80383,0 -1.87558,0 -1.00479,-0.0669 -2.07655,-0.0669 -1.07176,0 -2.14352,0 -1.07176,0 -1.94257,-0.0669 v 18.48787 z m 9.91378,-26.32515 h 8.84204 q 1.33969,0 2.41145,-0.33493 1.07176,-0.33493 1.87559,-1.13875 0.80382,-0.8708 1.20573,-2.27748 0.4689,-1.40669 0.4689,-3.6172 0,-2.07653 -0.4689,-3.41625 -0.40191,-1.40667 -1.20573,-2.14351 -0.80383,-0.80383 -1.87559,-1.07175 -1.07176,-0.33493 -2.41145,-0.33493 h -8.84204 z m 38.58344,26.72705 q -4.08608,0 -6.63152,-2.41146 -2.54542,-2.41147 -2.54542,-6.69852 v -3.21527 q 0,-4.08609 2.88034,-6.69851 2.88036,-2.67941 8.97601,-2.67941 h 9.17696 v -2.47844 q 0,-1.67463 -0.60287,-2.7464 -0.60286,-1.13874 -2.27748,-1.60763 -1.60765,-0.53589 -4.9569,-0.53589 h -10.78462 v -5.76072 q 2.61244,-0.80382 6.02867,-1.40668 3.48323,-0.60288 8.37314,-0.60288 4.488,0 7.6363,1.07177 3.21529,1.07177 4.82293,3.68418 1.67462,2.61243 1.67462,7.23439 v 24.44957 h -7.83726 l -1.60763,-3.81816 q -0.4689,0.53588 -1.60764,1.20573 -1.13875,0.66985 -2.81338,1.40669 -1.60763,0.66986 -3.68418,1.13875 -2.00955,0.46889 -4.22007,0.46889 z m 5.02389,-6.89945 q 0.66985,0 1.47367,-0.13398 0.87081,-0.20096 1.74161,-0.40192 0.9378,-0.26793 1.67464,-0.46889 0.80382,-0.26793 1.27271,-0.46889 0.53588,-0.20096 0.66985,-0.26795 v -8.37313 l -6.02866,0.40191 q -2.61241,0.20096 -3.88514,1.33971 -1.20573,1.13873 -1.20573,3.08131 v 1.47368 q 0,1.33969 0.53588,2.2105 0.60287,0.87081 1.54066,1.27271 1.00477,0.33494 2.21051,0.33494 z m 35.43507,22.37301 3.88512,-15.87546 q -3.01432,0 -5.29181,-1.13876 -2.27749,-1.13875 -3.81815,-3.21528 -1.47368,-2.14351 -2.27748,-5.29182 l -6.7655,-26.32514 h 10.3157 l 5.69373,24.31558 q 0.33492,1.27272 0.87081,2.00956 0.53587,0.73684 1.13875,1.07177 0.60286,0.26792 1.07176,0.4019 0.53587,0.0669 0.80383,0.0669 l 6.49754,-27.8658 h 10.04777 l -10.71763,45.21495 -3.21527,6.63151 z m 35.90401,-15.87546 -12.05731,-35.971 h 10.24872 l 7.77027,26.79403 7.97124,-26.79403 h 10.11474 l -12.5932,35.971 z m 42.53547,0.33492 q -5.96166,0 -9.51189,-1.54066 -3.5502,-1.60764 -5.15785,-5.62675 -1.54066,-4.01911 -1.54066,-11.11952 0,-7.30137 1.47367,-11.32048 1.47368,-4.01911 4.95692,-5.62675 3.48322,-1.60763 9.44489,-1.60763 5.35881,0 8.57409,1.07174 3.21529,1.07177 4.62198,3.75117 1.47366,2.67942 1.47366,7.56932 0,3.61721 -1.47366,5.76072 -1.40669,2.07654 -4.0191,3.01433 -2.61244,0.87081 -6.16264,0.87081 h -9.04299 q 0.13397,2.74638 0.80382,4.421 0.73684,1.60766 2.61243,2.34449 1.94256,0.66984 5.55976,0.66984 h 10.51665 v 5.82771 q -2.61242,0.53588 -5.76072,1.07177 -3.0813,0.46889 -7.36836,0.46889 z m -6.49756,-20.69839 h 8.1722 q 2.00953,0 2.94735,-0.80382 0.93777,-0.80383 0.93777,-2.88037 0,-1.94256 -0.60286,-3.0813 -0.60287,-1.20574 -1.87558,-1.67464 -1.27272,-0.53588 -3.41624,-0.53588 -2.2775,0 -3.61719,0.80382 -1.33971,0.73683 -1.94257,2.6794 -0.60288,1.94257 -0.60288,5.49279 z m 27.32995,20.36347 v -35.971 h 8.1722 l 1.74161,3.68418 q 2.00955,-1.67462 5.02388,-2.94735 3.08131,-1.33969 6.2966,-1.33969 4.42102,0 6.83248,1.74161 2.41146,1.74161 3.34925,4.68896 1.00478,2.88036 1.00478,6.43056 v 23.71273 h -9.91381 v -22.44001 q 0,-1.74162 -0.66984,-2.88036 -0.60286,-1.13874 -1.7416,-1.74162 -1.13876,-0.60286 -2.7464,-0.60286 -1.40668,0 -2.74639,0.33492 -1.27271,0.33492 -2.47844,0.93781 -1.13875,0.60285 -2.21051,1.40667 v 24.98545 z m 68.12382,0 -30.9471,-49.56898 h 10.98554 l 30.94711,49.56898 z m -30.74616,0 16.61231,-27.06199 5.09086,8.37315 -10.71761,18.68884 z m 25.05243,-21.90413 -5.02388,-8.37314 10.98554,-19.29171 h 10.91858 z"
         id="text1"
         aria-label="RayvenX" />
    </g>
  </g>
</svg>
