<svg xmlns="http://www.w3.org/2000/svg" viewBox="0 0 30 40" role="img" aria-label="TROOPERS shield">
  <path fill="#eaa307" d="M29.0992024,4.03758448 C23.1447934,3.21116545 18.1827859,1.78526293 14.9429681,0 C11.7037033,1.78526293 6.74059004,3.21116545 0.785628153,4.03758448 C0.274776349,6.5278312 0,9.16423979 0,11.8940601 C0,24.6255289 5.77030333,34.2024287 14.9429681,40 C24.1167387,34.2024287 29.887042,24.6255289 29.887042,11.8940601 C29.887042,9.16423979 29.6117128,6.5278312 29.0992024,4.03758448 M14.9429681,33.9716468 C8.3842723,28.729051 4.93712836,21.1610528 4.93712836,11.8940601 C4.93712836,10.6874004 4.99960266,9.48458707 5.12344553,8.30100555 C8.89622984,7.58173526 12.215108,6.61849552 14.9429681,5.45249739 C17.6708283,6.61849552 20.9908122,7.58173526 24.7635965,8.30100555 C24.8841221,9.48458707 24.9477022,10.6874004 24.9477022,11.8940601 C24.9477022,21.1610528 21.5000054,28.729051 14.9429681,33.9716468"/>
</svg>
