<?xml version="1.0" encoding="UTF-8" standalone="no"?><!DOCTYPE svg PUBLIC "-//W3C//DTD SVG 1.1//EN" "http://www.w3.org/Graphics/SVG/1.1/DTD/svg11.dtd"><svg width="100%" height="100%" viewBox="0 0 289 150" version="1.1" xmlns="http://www.w3.org/2000/svg" xmlns:xlink="http://www.w3.org/1999/xlink" xml:space="preserve" xmlns:serif="http://www.serif.com/" style="fill-rule:evenodd;clip-rule:evenodd;stroke-linejoin:round;stroke-miterlimit:1.41421;"><g id="g12"><path id="path14" d="M149.865,133.985c-4.315,-1.741 -6.4,-6.649 -4.659,-10.963c1.741,-4.312 6.65,-6.397 10.964,-4.655c4.314,1.742 6.4,6.65 4.658,10.963c-1.741,4.312 -6.65,6.397 -10.963,4.655Zm-20.878,0.252c-2.359,-0.953 -3.499,-3.635 -2.547,-5.993c0.952,-2.359 3.635,-3.499 5.994,-2.546c2.359,0.952 3.499,3.635 2.547,5.993c-0.952,2.359 -3.636,3.498 -5.994,2.546Zm6.55,-112.395c-2.234,5.22 0.603,12.132 6.217,14.971c-14.209,4.901 -23.026,20.283 -20.086,34.064c2.082,7.493 7.057,14.445 16.215,16.697c6.349,1.56 15.007,-1.02 18.554,-7.992c2.789,-5.482 0.621,-11.85 -4.292,-15.546c-1.914,-1.441 -7.178,-4.233 -11.827,-1.037c1.236,-1.707 2.636,-2.571 3.697,-2.933c2.654,-0.903 5.142,-0.668 7.188,0.064c4.628,1.657 8.13,5.395 9.706,9.68c4.928,13.391 -6.726,26.647 -21.523,26.38c-10.537,-0.19 -20.078,-5.211 -25.878,-14.041c-0.97,2.14 -2.509,4.056 -4.573,5.502c-6.143,4.305 -14.609,2.817 -18.91,-3.323c-4.301,-6.14 -2.808,-14.606 3.334,-18.911c4.423,-3.099 10.05,-3.196 14.46,-0.715c-0.101,-1.326 -0.146,-2.688 -0.129,-4.084c0.21,-17.617 14.219,-33.618 27.847,-38.776Zm61.917,13.903c0.648,4.606 -2.559,8.865 -7.164,9.513c-4.606,0.648 -8.865,-2.561 -9.514,-7.168c-0.649,-4.606 2.558,-8.865 7.164,-9.513c4.605,-0.648 8.864,2.561 9.514,7.168Zm10.656,17.955c0.356,2.518 -1.398,4.847 -3.916,5.201c-2.518,0.354 -4.847,-1.401 -5.201,-3.919c-0.356,-2.519 1.398,-4.847 3.916,-5.201c2.518,-0.354 4.846,1.4 5.201,3.919Zm-34.454,-26.61c0.82,5.814 -2.172,11.285 -7.072,13.887c2.33,0.875 4.679,2.002 7.026,3.395c15.151,8.99 22.005,29.122 19.658,43.504c-3.403,-4.545 -10.809,-5.544 -16.074,-2.1c2.859,-14.757 -6.053,-30.084 -19.457,-34.429c-7.531,-1.943 -16.039,-1.11 -22.568,5.695c-4.526,4.718 -6.62,13.506 -2.356,20.064c3.353,5.156 9.952,6.463 15.609,4.055c2.206,-0.937 7.256,-4.1 6.812,-9.724c0.86,1.924 0.91,3.569 0.692,4.669c-0.545,2.751 -1.993,4.787 -3.65,6.193c-3.748,3.18 -8.738,4.344 -13.236,3.566c-14.06,-2.429 -19.715,-19.148 -12.085,-31.829c5.214,-8.666 13.821,-14.313 23.826,-15.293c-2.103,-2.031 -3.569,-4.753 -4.009,-7.873c-1.046,-7.426 4.125,-14.292 11.55,-15.336c7.423,-1.044 14.29,4.129 15.334,11.556Zm-68.026,75.605c5.666,-0.38 10.537,-6.046 10.517,-12.336c10.818,10.435 28.526,11.308 39.47,2.432c5.731,-5.258 9.667,-12.847 7.516,-22.029c-1.492,-6.365 -7.721,-12.908 -15.544,-12.903c-6.151,0.004 -10.84,4.826 -11.904,10.882c-0.414,2.361 -0.512,8.317 4.446,11.01c-2.082,-0.327 -3.488,-1.183 -4.292,-1.964c-2.01,-1.954 -2.93,-4.278 -3.206,-6.434c-0.625,-4.876 1.116,-9.693 4.218,-13.043c9.694,-10.469 26.797,-6.105 33.277,7.201c4.127,8.474 4.449,17.991 0.729,26.471c2.732,-0.719 5.711,-0.595 8.534,0.544c6.954,2.809 10.316,10.722 7.51,17.673c-2.808,6.954 -10.722,10.312 -17.677,7.504c-5.352,-2.161 -8.576,-7.346 -8.499,-12.788c-2.311,1.847 -4.944,3.523 -7.902,4.988c-15.792,7.81 -36.41,2.593 -47.193,-7.208Zm-15.342,-62.245c3.81,-2.67 9.061,-1.748 11.73,2.061c2.668,3.809 1.743,9.061 -2.067,11.731c-3.81,2.671 -9.062,1.748 -11.73,-2.061c-2.668,-3.808 -1.743,-9.061 2.067,-11.731Zm11.16,-17.647c2.083,-1.461 4.954,-0.956 6.413,1.126c1.459,2.082 0.953,4.954 -1.13,6.414c-2.083,1.46 -4.954,0.956 -6.414,-1.127c-1.459,-2.082 -0.952,-4.954 1.131,-6.413" style="fill:#f7e300;fill-rule:nonzero;"/><path id="path16" d="M47.064,89.638l11.75,0l18.082,-40.726l-12.15,0l-11.807,31.029l-11.807,-31.029l-12.149,0l18.081,40.726" style="fill-rule:nonzero;"/><rect id="path18" x="140.175" y="48.912" width="11.066" height="40.726" style="fill-rule:nonzero;"/><path id="path20" d="M258.169,60.719c-0.741,-11.521 -13.175,-12.948 -21.56,-12.948c-12.777,0 -20.191,3.708 -20.191,12.777c0,8.328 6.844,10.438 13.917,11.522l10.096,1.54c4.391,0.684 6.902,1.54 6.902,4.677c0,3.537 -3.537,5.076 -8.728,5.076c-4.791,0 -10.381,-0.969 -10.495,-6.559l-12.434,0c0.114,12.72 13.005,13.975 22.929,13.975c16.028,0 21.162,-6.103 21.162,-13.689c0,-7.416 -5.648,-10.21 -13.062,-11.408l-13.86,-2.225c-2.852,-0.456 -4.678,-1.654 -4.678,-3.822c0,-2.738 2.965,-4.791 7.529,-4.791c4.449,0 9.526,0.57 10.21,5.875l12.263,0" style="fill-rule:nonzero;"/></g></svg>